<svg width="1200" height="800" xmlns="http://www.w3.org/2000/svg">
  <rect width="1200" height="800" fill="#1a1b26"/>
  
  <!-- Header -->
  <rect x="0" y="0" width="1200" height="60" fill="#24283b"/>
  <circle cx="40" cy="30" r="15" fill="#565f89"/>
  <text x="40" y="37" font-family="Arial, sans-serif" font-size="18" fill="#a9b1d6" text-anchor="middle">🌙</text>
  <circle cx="80" cy="30" r="15" fill="#565f89"/>
  <text x="80" y="37" font-family="Arial, sans-serif" font-size="18" fill="#a9b1d6" text-anchor="middle">🏠</text>
  <text x="600" y="40" font-family="Malgun Gothic, sans-serif" font-size="20" fill="#a9b1d6" text-anchor="middle" font-weight="bold">
    RE: 간편해진 보고서 작성
  </text>
  <circle cx="1120" cy="30" r="15" fill="#565f89"/>
  <text x="1120" y="37" font-family="Arial, sans-serif" font-size="18" fill="#a9b1d6" text-anchor="middle">⌨️</text>
  <circle cx="1160" cy="30" r="15" fill="#565f89"/>
  <text x="1160" y="37" font-family="Arial, sans-serif" font-size="18" fill="#a9b1d6" text-anchor="middle">⚙️</text>
  
  <!-- Content Grid -->
  <g>
    <!-- Left Panel - Quick Links -->
    <rect x="50" y="100" width="280" height="620" fill="#24283b" rx="12"/>
    <text x="190" y="135" font-family="Malgun Gothic, sans-serif" font-size="18" fill="#a9b1d6" text-anchor="middle" font-weight="bold">
      🔗 빠른 링크
    </text>
    <rect x="70" y="160" width="240" height="50" fill="#1a1b26" rx="6"/>
    <text x="90" y="192" font-family="Malgun Gothic, sans-serif" font-size="14" fill="#7aa2f7">
      📝 업데이트 내역
    </text>
    <rect x="70" y="220" width="240" height="50" fill="#1a1b26" rx="6"/>
    <text x="90" y="252" font-family="Malgun Gothic, sans-serif" font-size="14" fill="#7aa2f7">
      ☕ 후원하기
    </text>
    <rect x="70" y="280" width="240" height="50" fill="#1a1b26" rx="6"/>
    <text x="90" y="312" font-family="Malgun Gothic, sans-serif" font-size="14" fill="#7aa2f7">
      ⚙️ 설정
    </text>
    <rect x="70" y="340" width="240" height="50" fill="#1a1b26" rx="6"/>
    <text x="90" y="372" font-family="Malgun Gothic, sans-serif" font-size="14" fill="#7aa2f7">
      🗂️ 데이터 관리
    </text>
  </g>
  
  <!-- Center Panel - Recent History -->
  <g>
    <rect x="350" y="100" width="500" height="620" fill="#24283b" rx="12"/>
    <text x="600" y="135" font-family="Malgun Gothic, sans-serif" font-size="18" fill="#a9b1d6" text-anchor="middle" font-weight="bold">
      📋 최근 작성 히스토리
    </text>
    <text x="780" y="135" font-family="Malgun Gothic, sans-serif" font-size="14" fill="#7aa2f7">
      전체보기
    </text>
    
    <!-- Search & Filter -->
    <rect x="370" y="155" width="460" height="35" fill="#1a1b26" rx="6"/>
    <text x="390" y="178" font-family="Malgun Gothic, sans-serif" font-size="13" fill="#565f89">
      🔍 검색 (제목, 내용)...
    </text>
    
    <!-- History Items -->
    <rect x="370" y="205" width="460" height="70" fill="#1a1b26" rx="6"/>
    <text x="390" y="230" font-family="Malgun Gothic, sans-serif" font-size="14" fill="#a9b1d6" font-weight="bold">
      학생 상담 보고서 - 1월
    </text>
    <text x="750" y="230" font-family="Malgun Gothic, sans-serif" font-size="12" fill="#565f89">
      1/15 14:30
    </text>
    <text x="390" y="255" font-family="Malgun Gothic, sans-serif" font-size="12" fill="#7aa2f7">
      내담자는 최근 학교생활의 어려움을 호소하였다...
    </text>
    
    <rect x="370" y="285" width="460" height="70" fill="#1a1b26" rx="6"/>
    <text x="390" y="310" font-family="Malgun Gothic, sans-serif" font-size="14" fill="#a9b1d6" font-weight="bold">
      진로 상담 기록
    </text>
    <text x="750" y="310" font-family="Malgun Gothic, sans-serif" font-size="12" fill="#565f89">
      1/14 10:15
    </text>
    <text x="390" y="335" font-family="Malgun Gothic, sans-serif" font-size="12" fill="#7aa2f7">
      진로 선택에 대한 고민을 상담함...
    </text>
    
    <rect x="370" y="365" width="460" height="70" fill="#1a1b26" rx="6"/>
    <text x="390" y="390" font-family="Malgun Gothic, sans-serif" font-size="14" fill="#a9b1d6" font-weight="bold">
      심리검사 결과 상담
    </text>
    <text x="750" y="390" font-family="Malgun Gothic, sans-serif" font-size="12" fill="#565f89">
      1/12 15:45
    </text>
    <text x="390" y="415" font-family="Malgun Gothic, sans-serif" font-size="12" fill="#7aa2f7">
      MBTI 검사 결과를 바탕으로 진행...
    </text>
  </g>
  
  <!-- Right Panel - Action Cards -->
  <g>
    <!-- Report Card -->
    <rect x="870" y="100" width="280" height="290" fill="#667eea" rx="12"/>
    <text x="1010" y="200" font-family="Arial, sans-serif" font-size="48" fill="#ffffff" text-anchor="middle">✍️</text>
    <text x="1010" y="260" font-family="Malgun Gothic, sans-serif" font-size="22" fill="#ffffff" text-anchor="middle" font-weight="bold">
      보고서 작성
    </text>
    
    <!-- Guide Card -->
    <rect x="870" y="410" width="280" height="290" fill="#34c759" rx="12"/>
    <text x="1010" y="510" font-family="Arial, sans-serif" font-size="48" fill="#ffffff" text-anchor="middle">📖</text>
    <text x="1010" y="570" font-family="Malgun Gothic, sans-serif" font-size="22" fill="#ffffff" text-anchor="middle" font-weight="bold">
      사용 안내서
    </text>
  </g>
  
  <!-- Footer -->
  <rect x="0" y="740" width="1200" height="60" fill="#24283b"/>
  <text x="600" y="775" font-family="Malgun Gothic, sans-serif" font-size="13" fill="#565f89" text-anchor="middle">
    만든이: 김도현 (o7some@naver.com)
  </text>
</svg>
